<?xml version="1.0" encoding="UTF-8"?>
<svg width="137px" height="150px" viewBox="0 0 137 150" version="1.1" xmlns="http://www.w3.org/2000/svg" xmlns:xlink="http://www.w3.org/1999/xlink">
    <!-- Generator: Sketch 54.1 (76490) - https://sketchapp.com -->
    <title>Group 4</title>
    <desc>Created with Sketch.</desc>
    <defs>
        <linearGradient x1="50%" y1="0%" x2="50%" y2="100%" id="linearGradient-1">
            <stop stop-color="#F98969" offset="0%"></stop>
            <stop stop-color="#F05138" offset="100%"></stop>
        </linearGradient>
        <linearGradient x1="50%" y1="0%" x2="50%" y2="100%" id="linearGradient-2">
            <stop stop-color="#F98969" offset="0%"></stop>
            <stop stop-color="#F05138" offset="100%"></stop>
        </linearGradient>
        <linearGradient x1="50%" y1="0%" x2="50%" y2="100%" id="linearGradient-3">
            <stop stop-color="#F98969" offset="0%"></stop>
            <stop stop-color="#F05138" offset="100%"></stop>
        </linearGradient>
    </defs>
    <g id="Page-1" stroke="none" stroke-width="1" fill="none" fill-rule="evenodd">
        <g id="Group-4" transform="translate(0.000000, -0.500000)" fill-rule="nonzero">
            <path d="M92.3305885,84.7110418 C92.3284653,84.7083499 92.3264937,84.7064058 92.3242188,84.7038634 C92.423859,84.3694676 92.5266839,84.0371655 92.613888,83.6943948 C96.3522886,69.00715 87.2283162,51.6427945 71.7886459,42.5 C78.5546202,51.5446891 81.5462506,62.4998911 78.8882705,72.0804211 C78.6512271,72.934955 78.3662594,73.7550921 78.0512631,74.5521985 C77.7094231,74.3307136 77.2787109,74.0793185 76.7002825,73.764813 C76.7002825,73.764813 61.3419015,64.4138436 44.6959334,47.8742613 C44.2591547,47.440115 53.5722462,61.0003442 64.1415313,72.0116277 C59.1619513,69.2558532 45.284523,59.2992026 36.4992057,51.3701632 C37.5785646,53.1451829 38.8623602,54.8544002 40.2735495,56.4999088 C47.610066,65.6747072 57.1777933,76.9949629 68.6403514,85.6876093 C60.5866384,90.5477145 49.2065829,90.9256297 37.8759684,85.692694 C35.073457,84.3975832 32.4388325,82.8349258 30,81.0594574 C34.7962239,88.6244899 42.1830912,95.1514896 51.1736034,98.9618971 C61.8951544,103.505403 72.5569516,103.197328 80.4978302,99.0363734 L80.4916122,99.0453465 C80.5278587,99.0227643 80.5739631,98.9980884 80.6115746,98.9752071 C80.937642,98.8023263 81.2612829,98.6263048 81.5777957,98.4404131 C85.3930876,96.4875774 92.9290359,94.506327 96.9739399,102.267122 C97.9645782,104.166418 100.069609,94.101044 92.3305885,84.7110418 Z" id="Shape-Copy" fill="#F05138"></path>
            <g id="openbalena_icon-copy" transform="translate(0.000000, 0.500000)">
                <path d="M121.390107,54.652221 L121.390107,96.2730228 C121.390107,102.431203 118.000505,108.16468 112.916103,111.137595 L76.6897357,131.947996 C75.6304852,132.585049 74.7830848,133.009751 73.7238343,133.222102 L73.7238343,149.785482 C75.4186351,149.36078 77.1134359,148.723727 78.8082367,147.661972 L125.838959,120.693391 C132.406312,116.871073 136.431464,109.863489 136.431464,102.218852 L136.431464,48.4940412 C136.431464,46.5828819 136.219613,44.8840737 135.584063,42.9729144 L121.178256,51.4669556 C121.178256,52.5287107 121.390107,53.5904659 121.390107,54.652221 Z" id="Path" fill="url(#linearGradient-1)"></path>
                <path d="M10.5925049,30.0195016 C8.68585404,31.0812568 6.99105325,32.567714 5.71995266,34.0541712 L19.9139093,42.5482124 C20.9731598,41.4864572 22.0324103,40.4247021 23.3035108,39.787649 L59.3180276,18.9772481 C64.6142801,16.0043337 71.1816331,16.0043337 76.4778856,18.9772481 L112.704252,39.787649 C113.763503,40.4247021 114.822753,41.2741062 115.670154,42.1235103 L129.86411,33.6294691 C128.59301,32.3553629 127.110059,31.0812568 125.415258,30.0195016 L78.5963866,3.05092091 C72.0290335,-0.771397616 63.9787298,-0.771397616 57.4113767,3.05092091 L10.5925049,30.0195016 Z" id="Path" fill="url(#linearGradient-2)"></path>
                <path d="M59.5298777,131.947996 L23.5153609,111.137595 C18.2191085,108.16468 15.041357,102.431203 15.041357,96.2730228 L15.041357,54.652221 C15.041357,53.8028169 15.041357,53.1657638 15.2532071,52.3163597 L0.847400394,43.8223185 C0.211850099,45.3087757 0,46.7952329 0,48.4940412 L0,102.643554 C0,110.288191 4.02515187,117.295775 10.5925049,120.905742 L57.4113767,147.874323 C59.1061775,148.723727 60.8009783,149.573131 62.7076292,149.997833 L62.7076292,133.434453 C61.6483787,133.009751 60.5891282,132.585049 59.5298777,131.947996 Z" id="Path" fill="url(#linearGradient-3)"></path>
            </g>
        </g>
    </g>
</svg>